<svg width="62" height="62" viewBox="0 0 62 62" fill="none" xmlns="http://www.w3.org/2000/svg">
<path d="M62 31C62 13.8819 48.1181 0 31 0C13.8819 0 0 13.8819 0 31C0 48.1181 13.8819 62 31 62C48.1181 62 62 48.1181 62 31Z" fill="#323434"/>
<path d="M39.8339 46.5937C39.8339 46.9311 39.559 46.8561 39.2342 46.8561H29.6505C29.3132 46.8561 29.0508 46.9311 29.0508 46.5937V46.1814L30.4627 44.0697L30.4377 40.2338C30.4377 39.8964 30.7126 39.634 31.0375 39.634H37.8472C38.1846 39.634 38.447 39.9089 38.447 40.2338L38.422 44.0822L39.8339 46.1939V46.5937Z" fill="#9B9B9B"/>
<path d="M39.8339 46.1814C39.8339 46.5187 39.559 46.4438 39.2342 46.4438H29.6505C29.3132 46.4438 29.0508 46.5187 29.0508 46.1814L30.4627 43.7199L30.4377 39.8839C30.4377 39.5465 30.7126 39.2841 31.0375 39.2841H37.8472C38.1846 39.2841 38.447 39.559 38.447 39.8839L38.422 43.7324L39.8339 46.1814Z" fill="#BFBFBF"/>
<path d="M39.8339 39.2841H29.0508V40.1088H39.8339V39.2841Z" fill="#BFBFBF"/>
<path d="M39.8339 40.1088H29.0508V40.1588H39.8339V40.1088Z" fill="#BFBFBF"/>
<path d="M39.8339 40.1588H29.0508V40.2088H39.8339V40.1588Z" fill="#BFBFBF"/>
<path d="M39.8339 40.2213H29.0508V40.2713H39.8339V40.2213Z" fill="#BFBFBF"/>
<path d="M39.8339 40.2713H29.0508V40.3212H39.8339V40.2713Z" fill="#BFBFBF"/>
<path d="M39.8339 40.3212H29.0508V40.3712H39.8339V40.3212Z" fill="#BFBFBF"/>
<path d="M39.8339 40.3712H29.0508V40.4212H39.8339V40.3712Z" fill="#BFBFBF"/>
<path d="M39.8339 40.4212H29.0508V40.4712H39.8339V40.4212Z" fill="#BFBFBF"/>
<path d="M39.8339 40.4712H29.0508V40.5212H39.8339V40.4712Z" fill="#BFBFBF"/>
<path d="M39.8339 40.5211H29.0508V40.5711H39.8339V40.5211Z" fill="#BFBFBF"/>
<path d="M39.8339 40.5711H29.0508V40.6211H39.8339V40.5711Z" fill="#BFBFBF"/>
<path d="M39.8339 40.6336H29.0508V40.6836H39.8339V40.6336Z" fill="#BFBFBF"/>
<path d="M39.8339 40.6836H29.0508V40.7336H39.8339V40.6836Z" fill="#BFBFBF"/>
<path d="M39.8339 40.7336H29.0508V40.7835H39.8339V40.7336Z" fill="#BFBFBF"/>
<path d="M39.8339 40.7835H29.0508V40.8335H39.8339V40.7835Z" fill="#BFBFBF"/>
<path d="M39.8339 40.8335H29.0508V40.8835H39.8339V40.8335Z" fill="#BFBFBF"/>
<path d="M39.8339 40.8835H29.0508V40.9335H39.8339V40.8835Z" fill="#BFBFBF"/>
<path d="M39.8339 40.9335H29.0508V40.9835H39.8339V40.9335Z" fill="#BFBFBF"/>
<path d="M39.8339 40.9835H29.0508V41.0334H39.8339V40.9835Z" fill="#BFBFBF"/>
<path d="M39.8339 41.0459H29.0508V41.0959H39.8339V41.0459Z" fill="#BFBFBF"/>
<path d="M39.8339 41.0959H29.0508V41.1459H39.8339V41.0959Z" fill="#BFBFBF"/>
<path d="M39.8339 41.1459H29.0508V41.1959H39.8339V41.1459Z" fill="#BFBFBF"/>
<path d="M39.8339 41.1959H29.0508V41.2459H39.8339V41.1959Z" fill="#BFBFBF"/>
<path d="M39.8339 41.2459H29.0508V41.2958H39.8339V41.2459Z" fill="#BFBFBF"/>
<path d="M39.8339 41.2958H29.0508V41.3458H39.8339V41.2958Z" fill="#BFBFBF"/>
<path d="M39.8339 41.3458H29.0508V41.3958H39.8339V41.3458Z" fill="#BFBFBF"/>
<path d="M39.8339 41.3958H29.0508V41.4458H39.8339V41.3958Z" fill="#BFBFBF"/>
<path d="M39.8339 41.4583H29.0508V41.5083H39.8339V41.4583Z" fill="#BFBFBF"/>
<path d="M39.8339 41.5083H29.0508V41.5582H39.8339V41.5083Z" fill="#BFBFBF"/>
<path d="M39.8339 41.5582H29.0508V41.6082H39.8339V41.5582Z" fill="#BFBFBF"/>
<path d="M39.8339 41.6082H29.0508V41.6582H39.8339V41.6082Z" fill="#BFBFBF"/>
<path d="M39.8339 41.6582H29.0508V41.7082H39.8339V41.6582Z" fill="#BFBFBF"/>
<path d="M39.8339 41.7082H29.0508V41.7582H39.8339V41.7082Z" fill="#BFBFBF"/>
<path d="M39.8339 41.7581H29.0508V41.8081H39.8339V41.7581Z" fill="#BFBFBF"/>
<path d="M39.8339 41.8206H29.0508V41.8706H39.8339V41.8206Z" fill="#BFBFBF"/>
<path d="M39.8339 41.8706H29.0508V41.9206H39.8339V41.8706Z" fill="#BFBFBF"/>
<path d="M39.8339 41.9206H29.0508V41.9706H39.8339V41.9206Z" fill="#BFBFBF"/>
<path d="M39.8339 41.9706H29.0508V42.0205H39.8339V41.9706Z" fill="#BFBFBF"/>
<path d="M39.8339 42.0205H29.0508V42.0705H39.8339V42.0205Z" fill="#BFBFBF"/>
<path d="M39.8339 42.0705H29.0508V42.1205H39.8339V42.0705Z" fill="#BFBFBF"/>
<path d="M39.8339 42.1205H29.0508V42.1705H39.8339V42.1205Z" fill="#BFBFBF"/>
<path d="M39.8339 42.1705H29.0508V42.2205H39.8339V42.1705Z" fill="#BFBFBF"/>
<path d="M39.8339 42.233H29.0508V42.2829H39.8339V42.233Z" fill="#BFBFBF"/>
<path d="M39.8339 42.2829H29.0508V42.3329H39.8339V42.2829Z" fill="#BFBFBF"/>
<path d="M39.8339 42.3329H29.0508V42.3829H39.8339V42.3329Z" fill="#BFBFBF"/>
<path d="M39.8339 42.3829H29.0508V42.4329H39.8339V42.3829Z" fill="#BFBFBF"/>
<path d="M39.8339 42.4329H29.0508V42.4829H39.8339V42.4329Z" fill="#BFBFBF"/>
<path d="M39.8339 42.4829H29.0508V42.5328H39.8339V42.4829Z" fill="#BFBFBF"/>
<path d="M39.8339 42.5328H29.0508V42.5828H39.8339V42.5328Z" fill="#BFBFBF"/>
<path d="M39.8339 42.5828H29.0508V42.6328H39.8339V42.5828Z" fill="#BFBFBF"/>
<path d="M39.8339 42.6453H29.0508V42.6953H39.8339V42.6453Z" fill="#BFBFBF"/>
<path d="M39.8339 42.6953H29.0508V42.7453H39.8339V42.6953Z" fill="#BFBFBF"/>
<path d="M39.8339 42.7453H29.0508V42.7952H39.8339V42.7453Z" fill="#BFBFBF"/>
<path d="M39.8339 42.7952H29.0508V42.8452H39.8339V42.7952Z" fill="#BFBFBF"/>
<path d="M39.8339 42.8452H29.0508V42.8577H39.8339V42.8452Z" fill="#BFBFBF"/>
<path d="M39.8339 42.8577H29.0508V42.8702H39.8339V42.8577Z" fill="#BFBFBF"/>
<path d="M39.8339 42.8702H29.0508V42.8827H39.8339V42.8702Z" fill="#BFBFBF"/>
<path d="M39.8339 42.8827H29.0508V42.8952H39.8339V42.8827Z" fill="#BFBFBF"/>
<path d="M39.8339 42.8952H29.0508V42.9077H39.8339V42.8952Z" fill="#BFBFBF"/>
<path d="M39.8339 42.8952H29.0508V42.9077H39.8339V42.8952Z" fill="#BFBFBF"/>
<path d="M39.8339 42.9077H29.0508V42.9202H39.8339V42.9077Z" fill="#BFBFBF"/>
<path d="M39.8339 42.9206H29.0508V42.9331H39.8339V42.9206Z" fill="#BFBFBF"/>
<path d="M39.8339 42.9334H29.0508V42.9459H39.8339V42.9334Z" fill="#BFBFBF"/>
<path d="M39.8339 42.9452H29.0508V42.9577H39.8339V42.9452Z" fill="#BFBFBF"/>
<path d="M39.8339 42.9577H29.0508V42.9702H39.8339V42.9577Z" fill="#BFBFBF"/>
<path d="M39.8339 42.9702H29.0508V42.9827H39.8339V42.9702Z" fill="#BFBFBF"/>
<path d="M39.8339 42.9827H29.0508V42.9952H39.8339V42.9827Z" fill="#BFBFBF"/>
<path d="M39.8339 42.9952H29.0508V43.0077H39.8339V42.9952Z" fill="#BFBFBF"/>
<path d="M39.8339 42.9952H29.0508V43.0077H39.8339V42.9952Z" fill="#BFBFBF"/>
<path d="M39.8339 43.0077H29.0508V43.0202H39.8339V43.0077Z" fill="#BFBFBF"/>
<path d="M39.8339 43.0205H29.0508V43.033H39.8339V43.0205Z" fill="#BFBFBF"/>
<path d="M39.8339 43.0334H29.0508V43.0459H39.8339V43.0334Z" fill="#BFBFBF"/>
<path d="M39.8339 43.0451H29.0508V43.0576H39.8339V43.0451Z" fill="#BFBFBF"/>
<path d="M39.8339 43.0576H29.0508V43.0701H39.8339V43.0576Z" fill="#BFBFBF"/>
<path d="M39.8339 43.0701H29.0508V43.0826H39.8339V43.0701Z" fill="#BFBFBF"/>
<path d="M39.8339 43.0826H29.0508V43.0951H39.8339V43.0826Z" fill="#BFBFBF"/>
<path d="M39.8339 43.0826H29.0508V43.0951H39.8339V43.0826Z" fill="#BFBFBF"/>
<path d="M39.8339 43.0951H29.0508V43.1076H39.8339V43.0951Z" fill="#BFBFBF"/>
<path d="M39.8339 43.108H29.0508V43.1205H39.8339V43.108Z" fill="#BFBFBF"/>
<path d="M39.8339 43.1208H29.0508V43.1333H39.8339V43.1208Z" fill="#BFBFBF"/>
<path d="M39.8339 43.1326H29.0508V43.1451H39.8339V43.1326Z" fill="#BFBFBF"/>
<path d="M39.8339 43.1451H29.0508V43.1576H39.8339V43.1451Z" fill="#BFBFBF"/>
<path d="M39.8339 43.1576H29.0508V43.1701H39.8339V43.1576Z" fill="#BFBFBF"/>
<path d="M39.8339 43.1701H29.0508V43.1826H39.8339V43.1701Z" fill="#BFBFBF"/>
<path d="M39.8339 43.1701H29.0508V43.1826H39.8339V43.1701Z" fill="#BFBFBF"/>
<path d="M39.8339 43.1826H29.0508V43.1951H39.8339V43.1826Z" fill="#BFBFBF"/>
<path d="M39.8339 43.1954H29.0508V43.2079H39.8339V43.1954Z" fill="#BFBFBF"/>
<path d="M39.8339 43.2083H29.0508V43.2208H39.8339V43.2083Z" fill="#BFBFBF"/>
<path d="M39.8339 43.2201H29.0508V43.2326H39.8339V43.2201Z" fill="#BFBFBF"/>
<path d="M39.8339 43.2326H29.0508V43.2451H39.8339V43.2326Z" fill="#BFBFBF"/>
<path d="M39.8339 43.2451H29.0508V43.2576H39.8339V43.2451Z" fill="#BFBFBF"/>
<path d="M39.8339 43.2576H29.0508V43.2701H39.8339V43.2576Z" fill="#BFBFBF"/>
<path d="M39.8339 43.2701H29.0508V43.2825H39.8339V43.2701Z" fill="#BFBFBF"/>
<path d="M39.8339 43.2701H29.0508V43.2825H39.8339V43.2701Z" fill="#BFBFBF"/>
<path d="M39.8339 43.2825H29.0508V43.295H39.8339V43.2825Z" fill="#BFBFBF"/>
<path d="M39.8339 43.2954H29.0508V43.3079H39.8339V43.2954Z" fill="#BFBFBF"/>
<path d="M39.8339 43.3083H29.0508V43.3208H39.8339V43.3083Z" fill="#BFBFBF"/>
<path d="M39.8339 43.32H29.0508V43.3325H39.8339V43.32Z" fill="#BFBFBF"/>
<path d="M39.8339 43.3325H29.0508V43.345H39.8339V43.3325Z" fill="#BFBFBF"/>
<path d="M39.8339 43.345H29.0508V43.3575H39.8339V43.345Z" fill="#BFBFBF"/>
<path d="M39.8339 43.3575H29.0508V43.37H39.8339V43.3575Z" fill="#BFBFBF"/>
<path d="M39.8339 43.3575H29.0508V43.37H39.8339V43.3575Z" fill="#BFBFBF"/>
<path d="M39.8339 43.37H29.0508V43.3825H39.8339V43.37Z" fill="#BFBFBF"/>
<path d="M39.8339 43.3829H29.0508V43.3954H39.8339V43.3829Z" fill="#BFBFBF"/>
<path d="M39.8339 43.3957H29.0508V43.4082H39.8339V43.3957Z" fill="#BFBFBF"/>
<path d="M39.8339 43.4075H29.0508V43.42H39.8339V43.4075Z" fill="#BFBFBF"/>
<path d="M39.8339 43.42H29.0508V43.4325H39.8339V43.42Z" fill="#BFBFBF"/>
<path d="M39.8339 43.4325H29.0508V43.445H39.8339V43.4325Z" fill="#BFBFBF"/>
<path d="M39.8339 43.445H29.0508V43.4575H39.8339V43.445Z" fill="#BFBFBF"/>
<path d="M39.8339 43.445H29.0508V43.4575H39.8339V43.445Z" fill="#BFBFBF"/>
<path d="M39.8339 43.4575H29.0508V43.47H39.8339V43.4575Z" fill="#BFBFBF"/>
<path d="M39.8339 43.4703H29.0508V43.4828H39.8339V43.4703Z" fill="#BFBFBF"/>
<path d="M39.8339 43.4832H29.0508V43.4957H39.8339V43.4832Z" fill="#BFBFBF"/>
<path d="M39.8339 43.495H29.0508V43.5075H39.8339V43.495Z" fill="#BFBFBF"/>
<path d="M39.8339 43.5075H29.0508V43.52H39.8339V43.5075Z" fill="#BFBFBF"/>
<path d="M39.8339 43.5199H29.0508V43.5324H39.8339V43.5199Z" fill="#BFBFBF"/>
<path d="M39.8339 43.5324H29.0508V43.5449H39.8339V43.5324Z" fill="#BFBFBF"/>
<path d="M39.8339 43.5324H29.0508V43.5449H39.8339V43.5324Z" fill="#BFBFBF"/>
<path d="M39.8339 43.545H29.0508V43.5574H39.8339V43.545Z" fill="#BFBFBF"/>
<path d="M39.8339 43.5578H29.0508V43.5703H39.8339V43.5578Z" fill="#BFBFBF"/>
<path d="M39.8339 43.5707H29.0508V43.5832H39.8339V43.5707Z" fill="#BFBFBF"/>
<path d="M39.8339 43.5824H29.0508V43.5949H39.8339V43.5824Z" fill="#BFBFBF"/>
<path d="M39.8339 43.5949H29.0508V43.6074H39.8339V43.5949Z" fill="#BFBFBF"/>
<path d="M39.8339 43.6074H29.0508V43.6199H39.8339V43.6074Z" fill="#BFBFBF"/>
<path d="M39.8339 43.6199H29.0508V43.6324H39.8339V43.6199Z" fill="#BFBFBF"/>
<path d="M39.8339 43.6324H29.0508V43.6449H39.8339V43.6324Z" fill="#BFBFBF"/>
<path d="M39.8339 43.6324H29.0508V43.6449H39.8339V43.6324Z" fill="#BFBFBF"/>
<path d="M39.8339 43.6449H29.0508V43.6574H39.8339V43.6449Z" fill="#BFBFBF"/>
<path d="M39.8339 43.6578H29.0508V43.6703H39.8339V43.6578Z" fill="#BFBFBF"/>
<path d="M39.8339 43.6706H29.0508V43.6831H39.8339V43.6706Z" fill="#BFBFBF"/>
<path d="M39.8339 43.6824H29.0508V43.6949H39.8339V43.6824Z" fill="#BFBFBF"/>
<path d="M39.8339 43.6949H29.0508V43.7074H39.8339V43.6949Z" fill="#BFBFBF"/>
<path d="M39.8339 43.7074H29.0508V43.7199H39.8339V43.7074Z" fill="#BFBFBF"/>
<path d="M39.8339 43.7199H29.0508V43.7324H39.8339V43.7199Z" fill="#BFBFBF"/>
<path d="M39.8339 43.7199H29.0508V43.7324H39.8339V43.7199Z" fill="#BFBFBF"/>
<path d="M39.8339 43.7324H29.0508V43.7449H39.8339V43.7324Z" fill="#BFBFBF"/>
<path d="M39.8339 43.7452H29.0508V43.7577H39.8339V43.7452Z" fill="#BFBFBF"/>
<path d="M39.8339 43.7581H29.0508V43.833H39.8339V43.7581Z" fill="#BFBFBF"/>
<path d="M39.8339 43.8323H29.0508V43.9073H39.8339V43.8323Z" fill="#BFBFBF"/>
<path d="M39.8339 43.9073H29.0508V43.9823H39.8339V43.9073Z" fill="#BFBFBF"/>
<path d="M39.8339 43.9948H29.0508V44.0697H39.8339V43.9948Z" fill="#BFBFBF"/>
<path d="M39.8339 44.0697H29.0508V44.1447H39.8339V44.0697Z" fill="#BFBFBF"/>
<path d="M39.8339 44.1447H29.0508V44.2197H39.8339V44.1447Z" fill="#BFBFBF"/>
<path d="M39.8339 44.2197H29.0508V44.2946H39.8339V44.2197Z" fill="#BFBFBF"/>
<path d="M39.8339 44.2946H29.0508V44.3696H39.8339V44.2946Z" fill="#BFBFBF"/>
<path d="M39.8339 44.3696H29.0508V44.4446H39.8339V44.3696Z" fill="#BFBFBF"/>
<path d="M39.8339 44.4446H29.0508V44.5196H39.8339V44.4446Z" fill="#BFBFBF"/>
<path d="M39.8339 44.532H29.0508V44.607H39.8339V44.532Z" fill="#BFBFBF"/>
<path d="M39.8339 44.607H29.0508V44.682H39.8339V44.607Z" fill="#BFBFBF"/>
<path d="M39.8339 44.682H29.0508V44.7569H39.8339V44.682Z" fill="#BFBFBF"/>
<path d="M39.8339 44.757H29.0508V44.8319H39.8339V44.757Z" fill="#BFBFBF"/>
<path d="M39.8339 44.8319H29.0508V44.9069H39.8339V44.8319Z" fill="#BFBFBF"/>
<path d="M39.8339 44.9069H29.0508V44.9819H39.8339V44.9069Z" fill="#BFBFBF"/>
<path d="M39.8339 44.9944H29.0508V45.0693H39.8339V44.9944Z" fill="#BFBFBF"/>
<path d="M39.8339 45.0693H29.0508V45.1443H39.8339V45.0693Z" fill="#BFBFBF"/>
<path d="M39.8339 45.1443H29.0508V45.2193H39.8339V45.1443Z" fill="#BFBFBF"/>
<path d="M39.8339 45.2193H29.0508V45.2942H39.8339V45.2193Z" fill="#BFBFBF"/>
<path d="M39.8339 45.2942H29.0508V45.3692H39.8339V45.2942Z" fill="#BFBFBF"/>
<path d="M39.8339 45.3692H29.0508V45.4442H39.8339V45.3692Z" fill="#BFBFBF"/>
<path d="M39.8339 45.4442H29.0508V45.5191H39.8339V45.4442Z" fill="#BFBFBF"/>
<path d="M39.8339 45.5316H29.0508V45.6066H39.8339V45.5316Z" fill="#BFBFBF"/>
<path d="M39.8339 45.6066H29.0508V45.6816H39.8339V45.6066Z" fill="#BFBFBF"/>
<path d="M39.8339 45.6816H29.0508V45.7565H39.8339V45.6816Z" fill="#BFBFBF"/>
<path d="M39.8339 45.7566H29.0508V45.8315H39.8339V45.7566Z" fill="#BFBFBF"/>
<path d="M39.8339 45.8315H29.0508V45.9065H39.8339V45.8315Z" fill="#BFBFBF"/>
<path d="M39.8339 45.9065H29.0508V45.9815H39.8339V45.9065Z" fill="#BFBFBF"/>
<path d="M39.8339 45.9939H29.0508V46.0689H39.8339V45.9939Z" fill="#BFBFBF"/>
<path d="M39.8339 46.0689H29.0508V46.1439H39.8339V46.0689Z" fill="#BFBFBF"/>
<path d="M39.8339 46.1439H29.0508V46.2189H39.8339V46.1439Z" fill="#BFBFBF"/>
<path d="M39.8339 46.2189H29.0508V46.2938H39.8339V46.2189Z" fill="#BFBFBF"/>
<path d="M39.8339 46.2938H29.0508V46.3688H39.8339V46.2938Z" fill="#BFBFBF"/>
<path d="M39.8339 46.3688H29.0508V46.4438H39.8339V46.3688Z" fill="#BFBFBF"/>
<path d="M39.8339 46.4438H29.0508V46.5062H39.8339V46.4438Z" fill="#BFBFBF"/>
<path d="M53.4284 38.8593C53.4284 40.1088 52.4164 41.1209 51.1669 41.1209H17.7303C16.4808 41.1209 15.4688 40.1088 15.4688 38.8593V16.4684C15.4688 15.2189 16.4808 14.2068 17.7303 14.2068H51.1544C52.4039 14.2068 53.416 15.2189 53.416 16.4684V38.8593H53.4284Z" fill="#202121"/>
<path d="M51.7292 15.7312H17.0931V39.3216H51.7292V15.7312Z" fill="#666666"/>
<path d="M51.7292 15.6937H17.0931V15.8061H51.7292V15.6937Z" fill="#333333"/>
<path d="M25.3648 46.3313C25.3648 47.206 24.8775 47.7058 23.9903 47.7058H9.94598C9.07133 47.7058 8.57153 47.2185 8.57153 46.3313V26.9891C8.57153 26.1145 9.05884 25.6147 9.94598 25.6147H24.0028C24.8775 25.6147 25.3773 26.102 25.3773 26.9891V46.3313H25.3648Z" fill="#202121"/>
<path d="M16.9932 26.7142C17.076 26.7142 17.1431 26.6471 17.1431 26.5643C17.1431 26.4815 17.076 26.4144 16.9932 26.4144C16.9104 26.4144 16.8433 26.4815 16.8433 26.5643C16.8433 26.6471 16.9104 26.7142 16.9932 26.7142Z" fill="#707070"/>
<path d="M24.0903 27.4764H9.84607V45.794H24.0903V27.4764Z" fill="#666666"/>
<path d="M50.4921 46.0064C50.4921 47.1935 49.8924 47.7932 48.7054 47.7932H42.6453C41.4583 47.7932 40.8585 47.1935 40.8585 46.0064V31.3873C40.8585 30.2003 41.4583 29.6006 42.6453 29.6006H48.7054C49.8924 29.6006 50.4921 30.2003 50.4921 31.3873V46.0064Z" fill="#202121"/>
<path d="M46.4188 46.5437C46.4188 46.9436 46.0939 47.2559 45.7066 47.2559C45.3068 47.2559 44.9944 46.9311 44.9944 46.5437C44.9944 46.1564 45.3193 45.8315 45.7066 45.8315C46.1064 45.8315 46.4188 46.1439 46.4188 46.5437Z" fill="#111111"/>
<path d="M45.9314 46.6437C45.9314 46.7062 45.8815 46.7686 45.8065 46.7686H45.5941C45.5316 46.7686 45.4691 46.7187 45.4691 46.6437V46.4313C45.4691 46.3688 45.5191 46.3063 45.5941 46.3063H45.8065C45.869 46.3063 45.9314 46.3563 45.9314 46.4313V46.6437Z" stroke="#202121" stroke-width="1.639" stroke-miterlimit="10"/>
<path d="M46.8062 30.9375C46.8062 31.05 46.7187 31.1499 46.5937 31.1499H44.757C44.6445 31.1499 44.5446 31.0625 44.5446 30.9375C44.5446 30.8251 44.632 30.7251 44.757 30.7251H46.5937C46.7187 30.7376 46.8062 30.8251 46.8062 30.9375Z" fill="black"/>
<path d="M49.8924 31.8746H41.4333V45.1568H49.8924V31.8746Z" fill="#666666"/>
</svg>
