<svg width="62" height="62" viewBox="0 0 62 62" fill="none" xmlns="http://www.w3.org/2000/svg">
<path d="M31 62C48.1208 62 62 48.1208 62 31C62 13.8792 48.1208 0 31 0C13.8792 0 0 13.8792 0 31C0 48.1208 13.8792 62 31 62Z" fill="#585858"/>
<path d="M56.058 49.2549C50.4199 56.9807 41.2955 62 31.0001 62C20.7047 62 11.5803 56.9807 5.94214 49.2549H56.058Z" fill="#D48D77"/>
<path d="M46.086 49.2549V58.0887C45.2785 58.5377 44.4503 58.9539 43.606 59.3299V49.2549H46.086Z" fill="#6A6A6A"/>
<path d="M56.0567 49.2549C55.4539 50.0829 54.8091 50.8802 54.1265 51.6441V49.2549H56.0567Z" fill="#6A6A6A"/>
<path d="M24.2832 49.2549V54.3699C24.2832 55.0553 23.7274 55.6111 23.042 55.6111C22.3578 55.6111 21.802 55.0553 21.802 54.3699V49.2549H24.2832Z" fill="#6A6A6A"/>
<path d="M37.0198 53.0318V61.4151C36.2036 61.5762 35.3765 61.7045 34.5386 61.799V53.0318C34.5386 52.3476 35.0944 51.7918 35.7786 51.7918C36.4635 51.7923 37.0197 52.3459 37.0198 53.0318V53.0318Z" fill="#6A6A6A"/>
<path d="M51.7327 52.631V54.0453C50.9419 54.7598 50.1137 55.4319 49.2515 56.0591V52.631C49.3154 50.987 51.669 50.9876 51.7327 52.631Z" fill="#6A6A6A"/>
<path d="M30.1077 49.2549V61.9867C29.2783 61.9642 28.4518 61.9076 27.6277 61.8184V49.2549H30.1077Z" fill="#6A6A6A"/>
<path d="M19.8208 55.7782V59.9232C18.9756 59.5963 18.1485 59.233 17.3408 58.8358V55.7782C17.4035 54.1338 19.7586 54.1346 19.8208 55.7782Z" fill="#6A6A6A"/>
<path d="M11.6045 49.3179V55.1836C10.7393 54.489 9.91114 53.7479 9.12451 52.9652V49.3179C9.12451 49.2973 9.12451 49.2755 9.12572 49.2549H11.6033C11.6045 49.2767 11.6045 49.2973 11.6045 49.3179Z" fill="#6A6A6A"/>
<path d="M34.2567 39.9638H27.7428C26.5895 39.9638 25.6545 40.8988 25.6545 42.0521V50.6542H36.3448V42.0521C36.345 40.8987 35.41 39.9638 34.2567 39.9638V39.9638Z" fill="#334353"/>
<path d="M43.2473 50.6541H18.7527C17.502 50.6541 16.488 51.668 16.488 52.9189C16.488 54.1697 17.502 55.1837 18.7527 55.1837H43.2475C44.4982 55.1837 45.5123 54.1698 45.5123 52.9189C45.5122 51.668 44.4982 50.6541 43.2473 50.6541V50.6541Z" fill="#334353"/>
<path d="M38.5515 50.6541H23.4485C22.6772 50.6541 22.052 51.2793 22.052 52.0506C22.052 52.8218 22.6772 53.447 23.4485 53.447H38.5515C39.3228 53.447 39.948 52.8218 39.948 52.0506C39.9478 51.2793 39.3228 50.6541 38.5515 50.6541Z" fill="#3E4E60"/>
<path d="M54.0466 15.3221V40.8765C54.0466 41.5733 53.8395 42.2245 53.4817 42.7691C53.0328 43.4659 52.3409 43.9852 51.5233 44.2129C51.2251 44.2992 50.9065 44.3448 50.5848 44.3448H11.4152C11.0872 44.3448 10.775 44.2992 10.4767 44.2129C9.6591 43.9854 8.96704 43.4659 8.51827 42.7691C8.16044 42.2245 7.95337 41.5733 7.95337 40.8765V15.3221C7.95337 15.0004 7.9989 14.6819 8.08354 14.3836C8.40686 13.2271 9.31543 12.3138 10.4767 11.9905C10.7749 11.9057 11.0935 11.8602 11.4152 11.8602H50.5848C50.9128 11.8602 51.225 11.9057 51.5233 11.9905C52.6798 12.3138 53.5931 13.2224 53.9164 14.3836C54.0011 14.6818 54.0466 15.0004 54.0466 15.3221V15.3221Z" fill="#3F5D77"/>
<path d="M13.0026 15.3221V40.8765C13.0026 41.5733 12.7954 42.2245 12.4361 42.7691C11.9874 43.4659 11.2953 43.9852 10.4777 44.2129C9.66007 43.9854 8.96802 43.4659 8.51925 42.7691C8.16142 42.2245 7.95435 41.5733 7.95435 40.8765V15.3221C7.95435 13.7371 9.01828 12.4001 10.4777 11.9905C11.937 12.4001 13.0026 13.7371 13.0026 15.3221V15.3221Z" fill="#3E4E60"/>
<path d="M54.0466 15.3221V40.8765C54.0466 41.5733 53.8395 42.2245 53.4817 42.7691C53.0328 43.4659 52.3408 43.9852 51.5232 44.2129C50.7056 43.9854 50.0135 43.4659 49.5648 42.7691C49.2054 42.2245 48.9983 41.5733 48.9983 40.8765V15.3221C48.9983 13.7324 50.0685 12.3954 51.5233 11.9905C52.9763 12.3954 54.0466 13.7324 54.0466 15.3221V15.3221Z" fill="#3F6C8E"/>
<path d="M54.0466 37.2012V40.8765C54.0466 41.5733 53.8395 42.2246 53.4817 42.7691C53.0328 43.4659 52.3409 43.9853 51.5233 44.2129C51.2251 44.2992 50.9065 44.3448 50.5848 44.3448H11.4152C11.0872 44.3448 10.775 44.2992 10.4767 44.2129C9.6591 43.9854 8.96704 43.4659 8.51827 42.7691C8.16044 42.2246 7.95337 41.5733 7.95337 40.8765V37.2012H54.0466Z" fill="#3E4E60"/>
<path d="M13.0026 37.2012V40.8765C13.0026 41.5733 12.7954 42.2246 12.4361 42.7691C11.9874 43.4659 11.2953 43.9853 10.4777 44.2129C9.66007 43.9854 8.96802 43.4659 8.51925 42.7691C8.16142 42.2246 7.95435 41.5733 7.95435 40.8765V37.2012H13.0026Z" fill="#334353"/>
<path d="M54.0466 37.2012V40.8765C54.0466 41.5733 53.8395 42.2246 53.4817 42.7691C53.0328 43.4659 52.3408 43.9853 51.5232 44.2129C50.7056 43.9854 50.0135 43.4659 49.5648 42.7691C49.2054 42.2246 48.9983 41.5733 48.9983 40.8765V37.2012H54.0466Z" fill="#3F5D77"/>
<path d="M33.7569 40.7729H28.243C27.5327 40.7729 26.9568 41.3487 26.9568 42.0591C26.9568 42.7695 27.5326 43.3454 28.243 43.3454H33.7569C34.4673 43.3454 35.0432 42.7696 35.0432 42.0591C35.0432 41.3488 34.4673 40.7729 33.7569 40.7729Z" fill="#334353"/>
<path d="M41.2784 14.3845H24.8735C24.1765 14.3845 23.6113 13.8195 23.6113 13.1223C23.6113 12.4253 24.1764 11.8602 24.8735 11.8602H41.2784C41.9755 11.8602 42.5406 12.4252 42.5406 13.1223C42.5406 13.8193 41.9756 14.3845 41.2784 14.3845Z" fill="#3F6C8E"/>
<path d="M49.3364 39.8392H12.6636C11.4563 39.8392 10.4775 38.8604 10.4775 37.6531V16.5705C10.4775 15.3632 11.4563 14.3844 12.6636 14.3844H49.3363C50.5436 14.3844 51.5224 15.3632 51.5224 16.5705V37.6531C51.5224 38.8604 50.5437 39.8392 49.3364 39.8392Z" fill="#A2C2EB"/>
<path d="M46.7725 18.4469V35.2935C46.7725 36.4705 45.8182 37.426 44.64 37.426H17.36C16.183 37.426 15.2275 36.4705 15.2275 35.2935V18.4469C15.2275 18.0619 15.3293 17.6998 15.5097 17.3886C15.8754 16.7456 16.568 16.3133 17.36 16.3133H44.64C45.8182 16.3133 46.7725 17.2687 46.7725 18.4469Z" fill="white"/>
<path d="M46.7725 18.4469H15.2275C15.2275 18.0619 15.3293 17.6998 15.5097 17.3886C15.8754 16.7456 16.568 16.3133 17.36 16.3133H44.64C45.8182 16.3133 46.7725 17.2687 46.7725 18.4469Z" fill="#6C53A2"/>
<path d="M44.189 18.2097C44.6472 18.2097 45.0186 17.8383 45.0186 17.3801C45.0186 16.9219 44.6472 16.5505 44.189 16.5505C43.7308 16.5505 43.3594 16.9219 43.3594 17.3801C43.3594 17.8383 43.7308 18.2097 44.189 18.2097Z" fill="#FA4654"/>
<path d="M41.7534 18.2097C42.2116 18.2097 42.5831 17.8383 42.5831 17.3801C42.5831 16.9219 42.2116 16.5505 41.7534 16.5505C41.2953 16.5505 40.9238 16.9219 40.9238 17.3801C40.9238 17.8383 41.2953 18.2097 41.7534 18.2097Z" fill="#15BE79"/>
<path d="M42.3413 33.4249V26.3137C42.3413 25.5626 41.7324 24.9539 40.9815 24.9539H33.8703C33.1192 24.9539 32.5105 25.5628 32.5105 26.3137V33.4249C32.5105 34.1759 33.1194 34.7847 33.8703 34.7847H40.9815C41.7324 34.7847 42.3413 34.1759 42.3413 33.4249Z" fill="#E9465E"/>
<path d="M30.7523 31.6471C34.0566 31.6471 36.7353 28.9684 36.7353 25.6641C36.7353 22.3598 34.0566 19.6811 30.7523 19.6811C27.448 19.6811 24.7693 22.3598 24.7693 25.6641C24.7693 28.9684 27.448 31.6471 30.7523 31.6471Z" fill="#F9C744"/>
<path d="M27.2176 23.3848C28.3489 23.0817 29.3842 24.1169 29.0809 25.2482L27.9923 29.3109L26.9037 33.3736C26.6006 34.5049 25.1863 34.8838 24.3582 34.0557L21.384 31.0816L18.4099 28.1074C17.5818 27.2793 17.9607 25.865 19.092 25.5619L23.1547 24.4733L27.2176 23.3848Z" fill="#22BCE0"/>
<path d="M27.6062 30.7528L27.9924 29.311L29.0811 25.2483C29.3842 24.1169 28.3489 23.0817 27.2177 23.3849L25.0126 23.9757C24.8553 24.5114 24.7693 25.0777 24.7693 25.6641C24.7694 27.8139 25.9038 29.6981 27.6062 30.7528Z" fill="#9ACDAE"/>
<path d="M32.5103 31.3841C34.9566 30.6332 36.7353 28.3565 36.7353 25.6641C36.7353 25.4236 36.7195 25.1869 36.692 24.9538H33.8701C33.1191 24.9538 32.5104 25.5626 32.5104 26.3135V31.3841H32.5103Z" fill="#FB8406"/>
<path d="M32.1024 24.4257C33.1132 24.4257 33.9327 23.6063 33.9327 22.5955C33.9327 21.5847 33.1132 20.7653 32.1024 20.7653C31.0916 20.7653 30.2722 21.5847 30.2722 22.5955C30.2722 23.6063 31.0916 24.4257 32.1024 24.4257Z" fill="#FAD98F"/>
<path d="M37.6304 26.8707C37.6304 26.2941 38.0978 25.8266 38.6744 25.8266H40.4239C41.0005 25.8266 41.4679 26.2941 41.4679 26.8707C41.4679 27.4473 41.0005 27.9148 40.4239 27.9148H38.6744C38.0979 27.9149 37.6304 27.4473 37.6304 26.8707V26.8707Z" fill="#EA7589"/>
<path d="M19.4545 26.558C19.8622 26.1503 20.5234 26.1503 20.9311 26.558L22.1681 27.795C22.5758 28.2027 22.5758 28.8639 22.1681 29.2716C21.7603 29.6793 21.0992 29.6793 20.6914 29.2716L19.4545 28.0347C19.0468 27.6269 19.0468 26.9658 19.4545 26.558Z" fill="#83D5EF"/>
</svg>
