<svg width="62" height="62" viewBox="0 0 62 62" fill="none" xmlns="http://www.w3.org/2000/svg">
<path d="M62 31C62 33.7382 61.6445 36.394 60.9776 38.9234C60.0627 42.3979 58.5584 45.6333 56.5794 48.5169C56.2744 48.9611 55.9581 49.3975 55.6317 49.824C54.7194 51.0159 53.7223 52.1408 52.6506 53.186C51.3081 54.4968 49.8492 55.685 48.2878 56.7351C47.6323 57.1767 46.958 57.5942 46.2671 57.9853C41.7615 60.5411 36.5509 62 31 62C25.4491 62 20.2385 60.5411 15.7329 57.9851C15.1117 57.6334 14.503 57.2601 13.9096 56.8679C10.8981 54.8738 8.25496 52.3684 6.10518 49.4748C5.87111 49.1597 5.64212 48.8409 5.42064 48.5169C4.95879 47.8451 4.52358 47.1529 4.11489 46.4431C2.94452 44.411 1.99926 42.2347 1.31096 39.9457C0.458098 37.1139 0 34.1102 0 31C0 27.8898 0.458098 24.8861 1.31084 22.0543C3.72509 14.0297 9.30375 7.37679 16.5958 3.54284C19.4339 2.05109 22.5326 0.985703 25.8047 0.434C27.4939 0.148098 29.2299 0 31 0C36.2004 0 41.1009 1.28045 45.4042 3.54284C46.0305 3.87185 46.643 4.22109 47.2427 4.59175C53.9261 8.70906 58.9265 15.295 60.9776 23.0766C61.6445 25.606 62 28.2618 62 31Z" fill="#343434"/>
<path d="M60.9776 7.60917V39.2608C60.0627 42.7353 58.5583 45.9707 56.5793 48.8543H5.42047C3.6364 46.2554 2.23946 43.3704 1.31079 40.2832V7.60917C1.31079 5.55057 2.97971 3.88033 5.03842 3.88033H57.25C59.3086 3.88033 60.9776 5.55057 60.9776 7.60917Z" fill="#5C5E70"/>
<path d="M57.6536 5.45889H4.63477C3.64883 5.45889 2.84973 6.25811 2.84973 7.24394V34.2543C2.84973 35.2402 3.64895 36.0393 4.63477 36.0393H57.6536C58.6396 36.0393 59.4387 35.2401 59.4387 34.2543V7.24394C59.4387 6.25811 58.6396 5.45889 57.6536 5.45889Z" fill="#E8DBC4"/>
<path d="M36.694 8.59608H10.1226V25.0451H36.694V8.59608Z" fill="#FCF8F2"/>
<path d="M60.9776 36.4594V39.2608C60.0627 42.7353 58.5583 45.9707 56.5793 48.8543H5.42047C3.6364 46.2554 2.23946 43.3705 1.31079 40.2832V36.4594H60.9776Z" fill="#5C5E70"/>
<path d="M32.6851 44.793C30.8285 44.793 29.3235 43.2879 29.3235 41.4314C29.3235 40.9009 29.4469 40.3992 29.6657 39.953C28.5504 40.5001 27.7826 41.6463 27.7826 42.9722C27.7826 44.8288 29.2877 46.3338 31.1442 46.3338C32.47 46.3338 33.6163 45.5659 34.1634 44.4506C33.7173 44.6696 33.2156 44.793 32.6851 44.793Z" fill="#5B4949"/>
<path d="M33.8761 18.1808L36.3228 29.0971L38.205 24.0154H42.9102L33.8761 18.1808Z" fill="#5C5E70"/>
<path d="M42.8635 48.8548H19.4249V58.0333H42.8635V48.8548Z" fill="#5C5E70"/>
<path d="M42.8635 48.8548H19.4249V51.3094H42.8635V48.8548Z" fill="#494B5B"/>
<path d="M48.2878 57.0726C47.6323 57.5142 46.958 57.9317 46.2671 58.3227H15.7329C15.1116 57.971 14.503 57.5978 13.9095 57.2055C15.137 55.3544 17.2246 54.2042 19.5009 54.2042H42.7876C44.139 54.2042 45.4258 54.6104 46.5039 55.3279C47.1959 55.7883 47.8032 56.3791 48.2878 57.0726Z" fill="#797B89"/>
<path d="M12.6531 12.0127C13.2121 12.0127 13.6653 11.5596 13.6653 11.0005C13.6653 10.4415 13.2121 9.9883 12.6531 9.9883C12.0941 9.9883 11.6409 10.4415 11.6409 11.0005C11.6409 11.5596 12.0941 12.0127 12.6531 12.0127Z" fill="#88010A"/>
<path d="M15.8795 12.0127C16.4386 12.0127 16.8918 11.5596 16.8918 11.0005C16.8918 10.4415 16.4386 9.9883 15.8795 9.9883C15.3205 9.9883 14.8673 10.4415 14.8673 11.0005C14.8673 11.5596 15.3205 12.0127 15.8795 12.0127Z" fill="#3F2D01"/>
<path d="M19.1062 12.0127C19.6653 12.0127 20.1184 11.5596 20.1184 11.0005C20.1184 10.4415 19.6653 9.9883 19.1062 9.9883C18.5472 9.9883 18.094 10.4415 18.094 11.0005C18.094 11.5596 18.5472 12.0127 19.1062 12.0127Z" fill="#6F706F"/>
</svg>
