<svg width="62" height="62" viewBox="0 0 62 62" fill="none" xmlns="http://www.w3.org/2000/svg">
<g clip-path="url(#clip0)">
<path d="M31.0015 62C48.1215 62 62 48.1215 62 31.0015C62 13.8815 48.1215 0.00301266 31.0015 0.00301266C13.8816 0.00301266 0.00305176 13.8815 0.00305176 31.0015C0.00305176 48.1215 13.8816 62 31.0015 62Z" fill="#EDC92C"/>
<path d="M31.0005 0C13.8791 0 0 13.8787 0 30.999C0 45.2285 9.59086 57.2105 22.6578 60.8546C27.4621 59.3362 31.6339 56.5516 31.5457 50.6476C31.4845 46.5615 31.3832 35.5815 31.3822 35.4709L32.3612 35.4616C32.3621 35.5723 32.463 46.5492 32.5247 50.6324C32.6123 56.5041 28.8439 59.5497 24.3529 61.2771C26.4954 61.7456 28.7176 61.9991 31.0005 61.9991C48.1209 61.9991 62 48.12 62 30.9986C62 13.8787 48.1209 0 31.0005 0Z" fill="#555555"/>
<path d="M32.5247 50.633C32.4631 46.5497 32.3623 35.5723 32.3612 35.4621L31.3822 35.4714C31.3831 35.5821 31.4845 46.5619 31.5457 50.6481C31.6339 56.5521 27.462 59.3368 22.6578 60.8551C23.2173 61.0113 23.7817 61.1532 24.3529 61.278C28.8444 59.5503 32.6124 56.5047 32.5247 50.633Z" fill="#357180"/>
<path d="M43.6192 23.2296C43.6192 34.0421 41.9061 47.7034 31.7093 47.7034C21.5116 47.7034 19.7983 34.0421 19.7983 23.2296C19.7983 12.416 25.1312 13.9295 31.7093 13.9295C38.2869 13.9295 43.6192 12.416 43.6192 23.2296Z" fill="#A2D4DE"/>
<path d="M43.6192 23.7191H19.7983C19.7983 12.9055 25.1312 9.52427 31.7093 9.52427C38.2869 9.52427 43.6192 12.9055 43.6192 23.7191Z" fill="#67B8CB"/>
<path d="M31.8721 9.52427H31.545V11.9306H31.8721V9.52427Z" fill="#357180"/>
<path d="M33.6673 17.9878C33.6673 21.7386 33.4226 24.7792 31.7496 24.7792C29.6703 24.7792 29.8328 21.7386 29.8328 17.9878C29.8328 14.237 29.7926 11.6857 31.7496 11.6857C33.5038 11.6857 33.6673 14.2364 33.6673 17.9878Z" fill="#357180"/>
<path d="M33.0953 18.1101C33.0953 19.6236 32.9739 20.8502 31.7493 20.8502C30.322 20.8502 30.4032 19.6236 30.4032 18.1101C30.4032 16.5966 30.322 15.3699 31.7493 15.3699C33.0552 15.3701 33.0953 16.5967 33.0953 18.1101Z" fill="#1A3940"/>
</g>
<defs>
<clipPath id="clip0">
<rect width="62" height="62" fill="white"/>
</clipPath>
</defs>
</svg>
