<svg width="77" height="77" viewBox="0 0 77 77" fill="none" xmlns="http://www.w3.org/2000/svg">
<g filter="url(#filter0_d)">
<path d="M25.0337 25.4803C22.3875 25.4803 21.0623 27.0378 21.0623 30.1484C21.0623 33.0487 22.3875 34.4988 25.0337 34.4988C27.5988 34.4988 28.8781 33.0246 28.8781 30.0849C28.8781 28.8625 28.5846 27.8133 27.9975 26.9327C27.2812 25.9666 26.2955 25.4803 25.0337 25.4803Z" fill="white"/>
<path d="M4 0V69H72.9978V0H4ZM44.788 48.4045H37.1714V26.2362C36.615 26.4311 35.9009 26.6436 34.9108 26.8714C35.2459 27.8353 35.5022 28.74 35.5022 29.5811C35.5022 32.2733 34.6895 34.6172 33.0751 36.6128C31.4541 38.6084 29.3643 39.7978 26.8014 40.1724C25.1191 40.4221 24.2779 41.329 24.2779 42.8865C24.2779 43.4298 24.5473 43.9774 25.095 44.525C25.8113 45.3202 26.8562 45.8284 28.245 46.0321C34.258 46.9631 37.2591 49.4603 37.2591 53.5391C37.2591 60.0582 33.3643 63.3155 25.5856 63.3155C22.394 63.3155 19.7456 62.746 17.6887 61.6157C15.082 60.1852 13.7435 57.9334 13.7435 54.8666C13.7435 51.3376 15.5617 48.9149 19.5397 47.6137V47.491C18.1027 46.6061 17.4631 45.2611 17.4631 43.4539C17.4631 41.099 18.1027 39.627 19.5397 39.0355V38.9085C18.1027 38.4485 17.0031 37.397 15.9516 35.7585C14.7687 33.9907 14.186 32.1046 14.186 30.085C14.186 27.0554 15.2616 24.5363 17.4083 22.5166C19.4674 20.6262 21.923 19.6799 24.7839 19.6799C26.8408 19.6799 28.6677 20.1815 30.4333 21.1913C32.4092 21.1913 34.7071 20.7028 37.1758 19.7412V18.4203H44.7923V48.4045H44.788ZM44.2513 13.6887C43.386 14.6131 42.3696 15.0753 41.1933 15.0753C39.971 15.0753 38.9326 14.6131 38.0696 13.6887C37.2087 12.7643 36.7771 11.669 36.7771 10.4095C36.7771 9.10829 37.2043 7.99111 38.0696 7.06889C38.9326 6.14229 39.9731 5.68228 41.1933 5.68228C42.3652 5.68228 43.3838 6.14229 44.2513 7.06889C45.1122 7.9933 45.5481 9.11048 45.5481 10.4095C45.5481 11.669 45.1122 12.7643 44.2513 13.6887ZM63.2608 47.169C61.8195 48.0168 59.894 48.4352 57.7078 48.4352C54.641 48.4352 52.5732 47.3399 51.3968 45.1493C50.5119 43.5152 50.0672 40.9282 50.0672 37.397V26.5932H46.3104V19.6404H50.0672V15.6274H56.8666C56.9017 16.6175 56.9521 18.7248 56.974 19.6404H62.8008V26.5932H56.9827V37.7146C56.9827 40.5295 57.894 41.9402 59.7494 41.9402C61.0506 41.9402 62.1174 41.5875 63.2674 40.869V47.1712H63.2608V47.169Z" fill="white"/>
<path d="M20.3699 54.492C20.3699 56.6716 22.2165 57.7669 25.9163 57.7669C29.154 57.7669 30.7706 56.63 30.7706 54.3606C30.7706 52.2161 29.0072 51.1427 25.4738 51.1427C22.0697 51.1471 20.3677 52.2599 20.3699 54.492Z" fill="white"/>
</g>
<defs>
<filter id="filter0_d" x="0" y="0" width="77" height="77" filterUnits="userSpaceOnUse" color-interpolation-filters="sRGB">
<feFlood flood-opacity="0" result="BackgroundImageFix"/>
<feColorMatrix in="SourceAlpha" type="matrix" values="0 0 0 0 0 0 0 0 0 0 0 0 0 0 0 0 0 0 127 0"/>
<feOffset dy="4"/>
<feGaussianBlur stdDeviation="2"/>
<feColorMatrix type="matrix" values="0 0 0 0 0 0 0 0 0 0 0 0 0 0 0 0 0 0 0.25 0"/>
<feBlend mode="normal" in2="BackgroundImageFix" result="effect1_dropShadow"/>
<feBlend mode="normal" in="SourceGraphic" in2="effect1_dropShadow" result="shape"/>
</filter>
</defs>
</svg>
