<svg width="61" height="68" viewBox="0 0 61 68" fill="none" xmlns="http://www.w3.org/2000/svg">
<path d="M1.15333 -1C0.519175 -1 0.0466689 -0.483218 0.102936 0.148405L5.44925 60.1161C5.50551 60.7478 6.05135 61.4034 6.66268 61.5731L29.3497 67.8723C29.9608 68.042 30.9607 68.042 31.572 67.8727L54.3279 61.5632C54.939 61.3937 55.4856 60.7381 55.5418 60.1067L60.8969 0.148405C60.9536 -0.483218 60.4807 -1 59.8465 -1H1.15333ZM49.5113 12.7534C49.4608 13.3168 49.3734 14.2948 49.3172 14.9264L49.1763 16.4998C49.1195 17.1312 49.0388 18.0342 48.9962 18.5063C48.9537 18.9786 48.9134 19.3648 48.906 19.3648C48.8988 19.3648 48.374 19.3648 47.7398 19.3648H31.6529C31.0188 19.3648 30.4946 19.3648 30.4877 19.3648C30.4808 19.3648 29.9562 19.3648 29.322 19.3648H20.8496C20.2155 19.3648 19.743 19.8816 19.7992 20.5132L20.2934 26.0373C20.3497 26.6687 20.9149 27.1857 21.5491 27.1857H29.3222C29.9564 27.1857 30.481 27.1857 30.4879 27.1857C30.4948 27.1857 31.019 27.1857 31.6532 27.1857H45.0141C45.6483 27.1857 46.6297 27.1857 47.1949 27.1857C47.7597 27.1857 48.1803 27.6467 48.1291 28.2101C48.0777 28.7734 47.9898 29.7517 47.9335 30.3831L46.3445 48.1921C46.2877 48.8237 46.216 49.6306 46.1851 49.9853C46.1535 50.3397 45.628 50.7684 45.0169 50.9379L31.6112 54.655C31.0001 54.8242 30.4923 54.9645 30.4829 54.9665C30.4734 54.9686 29.9658 54.8314 29.3545 54.6619L15.9346 50.9381C15.3235 50.7686 14.7774 50.113 14.7211 49.4814L13.8573 39.7857C13.801 39.1541 14.274 38.6373 14.9081 38.6373H16.1329C16.767 38.6373 17.8047 38.6373 18.4389 38.6373H20.2653C20.8994 38.6373 21.4642 39.1541 21.5209 39.7857L21.8597 43.5812C21.9159 44.2128 22.4627 44.8647 23.0752 45.0301L29.3524 46.7252C29.9645 46.8906 30.4676 47.0259 30.4704 47.0259C30.4732 47.0259 30.9761 46.8903 31.5884 46.725L37.8769 45.0257C38.4889 44.8603 39.0362 44.2082 39.0929 43.5768L39.7748 35.9724C39.8315 35.3408 39.359 34.824 38.7249 34.824H31.6532C31.019 34.824 30.4948 34.824 30.4879 34.824C30.481 34.824 29.9564 34.824 29.3222 34.824H14.5662C13.932 34.824 13.3672 34.307 13.311 33.6756L11.6377 14.9262C11.5814 14.2945 11.4941 13.3168 11.4436 12.7532C11.3935 12.1898 11.8711 11.7288 12.5052 11.7288H29.3222C29.9564 11.7288 30.481 11.7288 30.4879 11.7288C30.4948 11.7288 31.019 11.7288 31.6532 11.7288H48.4499C49.0838 11.7288 49.5616 12.1898 49.5113 12.7534Z" fill="white"/>
</svg>
