<svg width="69" height="69" viewBox="0 0 69 69" fill="none" xmlns="http://www.w3.org/2000/svg">
<path d="M23.4032 19.678C21.6573 19.678 20.4724 19.8478 19.8562 20.0216V31.2431C20.5909 31.409 21.4875 31.4643 22.7277 31.4643C27.2977 31.4643 30.1179 29.1537 30.1179 25.2591C30.114 21.7675 27.6888 19.678 23.4032 19.678Z" fill="#030104"/>
<path d="M64.7776 0.0078125H4.22634C1.89198 0.0078125 0 1.89584 0 4.22231V64.7696C0 67.1 1.89198 68.992 4.22634 68.992H64.7776C67.108 68.992 69 67.1 69 64.7696V4.22626C69 1.89584 67.108 0.0078125 64.7776 0.0078125ZM35.13 34.0635C32.2032 36.8284 27.8544 38.0686 22.7867 38.0686C21.6531 38.0686 20.6419 38.0133 19.852 37.8988V51.4942H11.3321V13.9863C13.9825 13.54 17.7032 13.2003 22.9526 13.2003C28.2494 13.2003 32.0333 14.2115 34.5652 16.2457C37.0022 18.1653 38.6335 21.3252 38.6335 25.0459C38.6335 28.7667 37.3893 31.9147 35.13 34.0635ZM47.971 52.055C44.3529 52.055 41.1417 51.273 39.0522 50.1394L40.5729 43.9934C42.1528 44.9453 45.4273 46.075 47.971 46.075C50.5581 46.075 51.6325 45.1744 51.6325 43.7604C51.6325 42.3542 50.7872 41.6788 47.576 40.6044C41.8803 38.6887 39.6763 35.5842 39.7316 32.3137C39.7316 27.1868 44.1317 23.2843 50.9571 23.2843C54.1722 23.2843 57.0477 24.0229 58.7383 24.8642L57.2176 30.789C55.9773 30.1097 53.6114 29.213 51.2375 29.213C49.1559 29.213 47.9749 30.0583 47.9749 31.4684C47.9749 32.764 49.0374 33.4394 52.4225 34.6283C57.6679 36.4294 59.8719 39.0837 59.9232 43.1363C59.9232 48.275 55.8549 52.055 47.971 52.055Z" fill="#030104"/>
</svg>
