<svg width="69" height="69" viewBox="0 0 69 69" fill="none" xmlns="http://www.w3.org/2000/svg">
<path d="M15.2838 28.2455C14.0993 27.0616 12.18 27.0616 10.9955 28.2455C9.81157 29.43 9.81157 31.3493 10.9955 32.5338L25.8229 47.3612L22.9644 50.2202L8.137 35.3923C6.70354 33.9594 6.01602 32.0653 6.06919 30.1875C6.06445 30.1875 6.06445 9.23145 6.06445 9.23145C6.06445 7.55688 4.70679 6.19922 3.03223 6.19922C1.35766 6.19922 0 7.55688 0 9.23145V38.9473L10.1074 59.0273V69H32.4785V48.7994C32.4785 46.5668 31.5783 44.5406 30.1159 43.0776L15.2838 28.2455Z" fill="black"/>
<path d="M65.9678 6.19922C64.2932 6.19922 62.9355 7.55688 62.9355 9.23145V30.1875C62.984 32.0653 62.2965 33.9594 60.863 35.3923L46.0356 50.2202L43.1771 47.3612L58.0045 32.5338C59.1884 31.3493 59.1884 29.43 58.0045 28.2455C56.82 27.0616 54.9007 27.0616 53.7162 28.2455L38.8841 43.0776C37.4217 44.5406 36.5215 48.5883 36.5215 50.8209V69H58.8926V59.0273L69 38.9473V9.23145C69 7.55688 67.6423 6.19922 65.9678 6.19922Z" fill="black"/>
<path d="M34.5 17.1531L33.0708 18.5823C32.2827 19.3704 32.2827 20.6533 33.0708 21.4414C33.4524 21.823 33.9599 22.0331 34.5 22.0331C35.0402 22.0331 35.5476 21.823 35.9293 21.4414C36.7174 20.6533 36.7174 19.3704 35.9293 18.5823L34.5 17.1531Z" fill="black"/>
<path d="M48.6504 20.0116C48.6504 18.0381 48.2508 16.1261 47.4628 14.3294L43.3424 4.38199L40.1886 5.68858L34.5 0L28.8114 5.68858L25.6576 4.38199L21.5372 14.3299C20.7492 16.1261 20.3496 18.0381 20.3496 20.0116C20.3496 23.7914 21.8215 27.3448 24.4937 30.0175C27.1663 32.6901 30.7202 34.162 34.5 34.162C38.2798 34.162 41.8331 32.6901 44.5058 30.0175C47.1785 27.3448 48.6504 23.7914 48.6504 20.0116V20.0116ZM38.7883 24.2999C37.6428 25.4454 36.1198 26.0761 34.5 26.0761C32.8802 26.0761 31.3572 25.4454 30.2117 24.2999C27.8475 21.9357 27.8475 18.0881 30.2117 15.7239L34.5 11.4356L38.7883 15.7239C41.1525 18.0881 41.1525 21.9357 38.7883 24.2999Z" fill="black"/>
</svg>
