<svg width="62" height="62" viewBox="0 0 62 62" fill="none" xmlns="http://www.w3.org/2000/svg">
<path d="M31 62C48.1208 62 62 48.1208 62 31C62 13.8792 48.1208 0 31 0C13.8792 0 0 13.8792 0 31C0 48.1208 13.8792 62 31 62Z" fill="#555555"/>
<path d="M56.0578 49.2549C50.4196 56.9807 41.2952 62 30.9998 62C20.7044 62 11.58 56.9807 5.94189 49.2549H56.0578Z" fill="#D48D77"/>
<path d="M46.0857 49.2549V58.0887C45.2783 58.5377 44.4501 58.9539 43.6057 59.3299V49.2549H46.0857Z" fill="#EEA47D"/>
<path d="M56.0567 49.2549C55.4539 50.0829 54.8091 50.8802 54.1265 51.6441V49.2549H56.0567Z" fill="#EEA47D"/>
<path d="M24.2832 49.2549V54.3699C24.2832 55.0553 23.7274 55.6111 23.042 55.6111C22.3578 55.6111 21.802 55.0553 21.802 54.3699V49.2549H24.2832Z" fill="#EEA47D"/>
<path d="M37.0193 53.0318V61.4151C36.2031 61.5762 35.3761 61.7045 34.5381 61.799V53.0318C34.5381 52.3476 35.0939 51.7918 35.7781 51.7918C36.463 51.7923 37.0192 52.3459 37.0193 53.0318V53.0318Z" fill="#EEA47D"/>
<path d="M51.7322 52.631V54.0453C50.9414 54.7598 50.1132 55.4319 49.251 56.0591V52.631C49.3149 50.987 51.6685 50.9876 51.7322 52.631Z" fill="#EEA47D"/>
<path d="M30.1074 49.2549V61.9867C29.2781 61.9642 28.4516 61.9076 27.6274 61.8184V49.2549H30.1074Z" fill="#EEA47D"/>
<path d="M19.8203 55.7782V59.9232C18.9751 59.5963 18.148 59.233 17.3403 58.8358V55.7782C17.4031 54.1338 19.7581 54.1346 19.8203 55.7782Z" fill="#EEA47D"/>
<path d="M11.6043 49.3179V55.1836C10.7391 54.489 9.91089 53.7479 9.12427 52.9652V49.3179C9.12427 49.2973 9.12427 49.2755 9.12548 49.2549H11.6031C11.6043 49.2767 11.6043 49.2973 11.6043 49.3179Z" fill="#EEA47D"/>
<path d="M34.2572 39.9638H27.7433C26.59 39.9638 25.655 40.8988 25.655 42.0521V50.6542H36.3453V42.0521C36.3454 40.8987 35.4105 39.9638 34.2572 39.9638V39.9638Z" fill="#334353"/>
<path d="M43.2476 50.6541H18.753C17.5022 50.6541 16.4883 51.668 16.4883 52.9189C16.4883 54.1697 17.5022 55.1837 18.753 55.1837H43.2477C44.4985 55.1837 45.5125 54.1698 45.5125 52.9189C45.5124 51.668 44.4985 50.6541 43.2476 50.6541V50.6541Z" fill="#334353"/>
<path d="M38.5518 50.6541H23.4487C22.6775 50.6541 22.0522 51.2793 22.0522 52.0506C22.0522 52.8218 22.6775 53.447 23.4487 53.447H38.5518C39.323 53.447 39.9482 52.8218 39.9482 52.0506C39.9481 51.2793 39.323 50.6541 38.5518 50.6541Z" fill="#3E4E60"/>
<path d="M54.0469 15.3221V40.8765C54.0469 41.5733 53.8398 42.2245 53.482 42.7691C53.0331 43.4659 52.3411 43.9852 51.5235 44.2129C51.2254 44.2992 50.9068 44.3448 50.585 44.3448H11.4154C11.0874 44.3448 10.7752 44.2992 10.477 44.2129C9.65934 43.9854 8.96729 43.4659 8.51852 42.7691C8.16068 42.2245 7.95361 41.5733 7.95361 40.8765V15.3221C7.95361 15.0004 7.99914 14.6819 8.08379 14.3836C8.40711 13.2271 9.31568 12.3138 10.477 11.9905C10.7751 11.9057 11.0937 11.8602 11.4154 11.8602H50.585C50.9131 11.8602 51.2253 11.9057 51.5235 11.9905C52.6801 12.3138 53.5934 13.2224 53.9167 14.3836C54.0013 14.6818 54.0469 15.0004 54.0469 15.3221V15.3221Z" fill="#3F5D77"/>
<path d="M13.0029 15.3221V40.8765C13.0029 41.5733 12.7957 42.2245 12.4364 42.7691C11.9876 43.4659 11.2956 43.9852 10.4779 44.2129C9.66032 43.9854 8.96827 43.4659 8.51949 42.7691C8.16166 42.2245 7.95459 41.5733 7.95459 40.8765V15.3221C7.95459 13.7371 9.01852 12.4001 10.4779 11.9905C11.9372 12.4001 13.0029 13.7371 13.0029 15.3221V15.3221Z" fill="#3E4E60"/>
<path d="M54.0471 15.3221V40.8765C54.0471 41.5733 53.84 42.2245 53.4822 42.7691C53.0333 43.4659 52.3413 43.9852 51.5237 44.2129C50.7061 43.9854 50.014 43.4659 49.5653 42.7691C49.2059 42.2245 48.9988 41.5733 48.9988 40.8765V15.3221C48.9988 13.7324 50.069 12.3954 51.5238 11.9905C52.9768 12.3954 54.0471 13.7324 54.0471 15.3221V15.3221Z" fill="#3F6C8E"/>
<path d="M54.0469 37.2012V40.8765C54.0469 41.5733 53.8398 42.2246 53.482 42.7691C53.0331 43.4659 52.3411 43.9853 51.5235 44.2129C51.2254 44.2992 50.9068 44.3448 50.585 44.3448H11.4154C11.0874 44.3448 10.7752 44.2992 10.477 44.2129C9.65934 43.9854 8.96729 43.4659 8.51852 42.7691C8.16068 42.2246 7.95361 41.5733 7.95361 40.8765V37.2012H54.0469Z" fill="#3E4E60"/>
<path d="M13.0029 37.2012V40.8765C13.0029 41.5733 12.7957 42.2246 12.4364 42.7691C11.9876 43.4659 11.2956 43.9853 10.4779 44.2129C9.66032 43.9854 8.96827 43.4659 8.51949 42.7691C8.16166 42.2246 7.95459 41.5733 7.95459 40.8765V37.2012H13.0029Z" fill="#334353"/>
<path d="M54.0471 37.2012V40.8765C54.0471 41.5733 53.84 42.2246 53.4822 42.7691C53.0333 43.4659 52.3413 43.9853 51.5237 44.2129C50.7061 43.9854 50.014 43.4659 49.5653 42.7691C49.2059 42.2246 48.9988 41.5733 48.9988 40.8765V37.2012H54.0471Z" fill="#3F5D77"/>
<path d="M33.7572 40.7729H28.2433C27.533 40.7729 26.957 41.3487 26.957 42.0591C26.957 42.7695 27.5328 43.3454 28.2433 43.3454H33.7572C34.4675 43.3454 35.0434 42.7696 35.0434 42.0591C35.0434 41.3488 34.4675 40.7729 33.7572 40.7729Z" fill="#334353"/>
<path d="M41.2787 14.3845H24.8737C24.1767 14.3845 23.6116 13.8195 23.6116 13.1223C23.6116 12.4253 24.1766 11.8602 24.8737 11.8602H41.2787C41.9757 11.8602 42.5408 12.4252 42.5408 13.1223C42.5408 13.8193 41.9758 14.3845 41.2787 14.3845Z" fill="#3F6C8E"/>
<path d="M49.3366 39.8392H12.6639C11.4566 39.8392 10.4778 38.8604 10.4778 37.6531V16.5705C10.4778 15.3632 11.4566 14.3844 12.6639 14.3844H49.3365C50.5438 14.3844 51.5226 15.3632 51.5226 16.5705V37.6531C51.5226 38.8604 50.5439 39.8392 49.3366 39.8392Z" fill="white"/>
<path d="M35.3042 31.5889V26.03C35.3042 25.4429 34.8284 24.967 34.2413 24.967H28.6823C28.0953 24.967 27.6194 25.4429 27.6194 26.03V31.5889C27.6194 32.176 28.0953 32.6518 28.6823 32.6518H34.2413C34.8284 32.6518 35.3042 32.176 35.3042 31.5889Z" fill="#E9465E"/>
<path d="M26.245 30.1991C28.828 30.1991 30.9219 28.1052 30.9219 25.5222C30.9219 22.9392 28.828 20.8453 26.245 20.8453C23.662 20.8453 21.5681 22.9392 21.5681 25.5222C21.5681 28.1052 23.662 30.1991 26.245 30.1991Z" fill="#F9C744"/>
<path d="M23.4821 23.7404C24.3665 23.5035 25.1758 24.3127 24.9388 25.1971L24.0879 28.3729L23.2369 31.5487C22.9999 32.433 21.8945 32.7292 21.2471 32.0819L18.9222 29.757L16.5974 27.4321C15.95 26.7847 16.2462 25.6793 17.1305 25.4423L20.3063 24.5914L23.4821 23.7404Z" fill="#22BCE0"/>
<path d="M23.7857 29.5L24.0877 28.3729L24.9386 25.1971C25.1756 24.3127 24.3663 23.5035 23.482 23.7404L21.7582 24.2023C21.6352 24.621 21.5681 25.0636 21.5681 25.5222C21.5681 27.2027 22.455 28.6756 23.7857 29.5Z" fill="#9ACDAE"/>
<path d="M27.6194 29.9935C29.5317 29.4064 30.9221 27.6268 30.9221 25.5221C30.9221 25.334 30.9097 25.1491 30.8882 24.9669H28.6823C28.0953 24.9669 27.6194 25.4428 27.6194 26.0298V29.9935Z" fill="#FB8406"/>
<path d="M27.3007 24.5541C28.0908 24.5541 28.7313 23.9136 28.7313 23.1235C28.7313 22.3334 28.0908 21.6929 27.3007 21.6929C26.5106 21.6929 25.8701 22.3334 25.8701 23.1235C25.8701 23.9136 26.5106 24.5541 27.3007 24.5541Z" fill="#FAD98F"/>
<path d="M31.6221 26.4654C31.6221 26.0146 31.9875 25.6492 32.4382 25.6492H33.8058C34.2566 25.6492 34.6219 26.0147 34.6219 26.4654C34.6219 26.9162 34.2565 27.2816 33.8058 27.2816H32.4382C31.9874 27.2816 31.6221 26.9162 31.6221 26.4654Z" fill="#EA7589"/>
<path d="M17.4136 26.221C17.7323 25.9023 18.2491 25.9023 18.5679 26.221L19.5348 27.188C19.8535 27.5067 19.8535 28.0235 19.5348 28.3422C19.2161 28.661 18.6993 28.661 18.3805 28.3422L17.4136 27.3753C17.0949 27.0566 17.0949 26.5398 17.4136 26.221Z" fill="#83D5EF"/>
<path d="M43.3948 24.5108L39.6902 26.5986C39.5049 26.703 39.3904 26.8992 39.3904 27.1118C39.3904 27.3244 39.5048 27.5205 39.6902 27.625L43.3948 29.7128C43.5772 29.8156 43.8004 29.8139 43.9812 29.7083C44.1621 29.6026 44.2731 29.4091 44.2731 29.1997V27.7009H48.9283C49.2537 27.7009 49.5174 27.4372 49.5174 27.1118C49.5174 26.7864 49.2537 26.5227 48.9283 26.5227H44.2731V25.024C44.2731 24.8658 44.2097 24.7165 44.1006 24.6075C44.0653 24.5722 44.0254 24.5411 43.9812 24.5154C43.8005 24.4098 43.5772 24.4081 43.3948 24.5108V24.5108Z" fill="#6C7ED5"/>
<path d="M43.2713 25.2402C43.4339 25.522 43.3374 25.8822 43.0556 26.0449L41.2794 27.0704C40.9976 27.233 40.6374 27.1365 40.4747 26.8547C40.3121 26.5729 40.4086 26.2127 40.6904 26.0501L42.4666 25.0245C42.7484 24.8619 43.1087 24.9584 43.2713 25.2402Z" fill="#A2C2EB"/>
<path d="M33.6603 35.8771H31.2951C31.061 35.8771 30.8713 35.6873 30.8713 35.4532C30.8713 35.2192 31.061 35.0294 31.2951 35.0294H33.6603C33.8944 35.0294 34.0841 35.2192 34.0841 35.4532C34.0841 35.6873 33.8942 35.8771 33.6603 35.8771ZM28.9299 35.8771H26.5647C26.3306 35.8771 26.1409 35.6873 26.1409 35.4532C26.1409 35.2192 26.3306 35.0294 26.5647 35.0294H28.9299C29.164 35.0294 29.3537 35.2192 29.3537 35.4532C29.3537 35.6873 29.164 35.8771 28.9299 35.8771ZM24.1995 35.8771H21.8343C21.6002 35.8771 21.4104 35.6873 21.4104 35.4532C21.4104 35.2192 21.6002 35.0294 21.8343 35.0294H24.1995C24.4336 35.0294 24.6233 35.2192 24.6233 35.4532C24.6233 35.6873 24.4336 35.8771 24.1995 35.8771ZM19.4692 35.8771H17.1087C16.8746 35.8771 16.6825 35.6873 16.6825 35.4532C16.6825 35.2192 16.8698 35.0294 17.1039 35.0294H19.4691C19.7031 35.0294 19.8929 35.2192 19.8929 35.4532C19.8929 35.6873 19.7033 35.8771 19.4692 35.8771ZM36.0227 35.8418C35.8215 35.8418 35.6428 35.6978 35.606 35.4927C35.5647 35.2624 35.718 35.042 35.9484 35.0007C36.5906 34.8854 37.1249 34.4308 37.3429 33.8144C37.421 33.5936 37.6629 33.4776 37.8837 33.5559C38.1043 33.6339 38.2201 33.8761 38.1421 34.0967C37.8229 35 37.0397 35.666 36.0982 35.835C36.0727 35.8396 36.0475 35.8418 36.0227 35.8418V35.8418ZM15.1551 34.7398C15.0076 34.7398 14.8644 34.6626 14.7863 34.5253C14.5588 34.1252 14.4385 33.6694 14.4385 33.2068V32.0017C14.4385 31.7676 14.6282 31.5779 14.8623 31.5779C15.0964 31.5779 15.2861 31.7676 15.2861 32.0017V33.2068C15.2861 33.5226 15.3681 33.8336 15.5231 34.1062C15.6389 34.3097 15.5677 34.5684 15.3642 34.684C15.2981 34.7218 15.2261 34.7398 15.1551 34.7398V34.7398ZM37.8701 32.0288C37.636 32.0288 37.4463 31.8391 37.4463 31.605V29.2399C37.4463 29.0058 37.636 28.8161 37.8701 28.8161C38.1042 28.8161 38.2939 29.0058 38.2939 29.2399V31.605C38.2939 31.8391 38.1042 32.0288 37.8701 32.0288ZM14.8623 30.0604C14.6282 30.0604 14.4385 29.8707 14.4385 29.6366V27.2714C14.4385 27.0373 14.6282 26.8476 14.8623 26.8476C15.0964 26.8476 15.2861 27.0373 15.2861 27.2714V29.6366C15.2861 29.8707 15.0965 30.0604 14.8623 30.0604ZM37.8701 27.2985C37.636 27.2985 37.4463 27.1088 37.4463 26.8747V24.5096C37.4463 24.2756 37.636 24.0858 37.8701 24.0858C38.1042 24.0858 38.2939 24.2756 38.2939 24.5096V26.8747C38.2939 27.1087 38.1042 27.2985 37.8701 27.2985ZM14.8623 25.3302C14.6282 25.3302 14.4385 25.1404 14.4385 24.9063V22.5411C14.4385 22.3071 14.6282 22.1173 14.8623 22.1173C15.0964 22.1173 15.2861 22.3071 15.2861 22.5411V24.9063C15.2861 25.1403 15.0965 25.3302 14.8623 25.3302ZM37.8701 22.5681C37.636 22.5681 37.4463 22.3784 37.4463 22.1443V20.9346C37.4463 20.62 37.365 20.3102 37.2112 20.0386C37.096 19.8348 37.1677 19.5763 37.3712 19.4609C37.5746 19.3455 37.8333 19.4172 37.9489 19.6208C38.1747 20.0196 38.2941 20.4739 38.2941 20.9346V22.1443C38.2939 22.3784 38.1042 22.5681 37.8701 22.5681V22.5681ZM14.9885 20.6143C14.9419 20.6143 14.8946 20.6067 14.8481 20.5903C14.6273 20.5127 14.511 20.2709 14.5885 20.05C14.9059 19.1459 15.6877 18.4783 16.6291 18.3073C16.8593 18.2646 17.08 18.4184 17.1218 18.6486C17.1636 18.8788 17.0108 19.0995 16.7804 19.1412C16.1384 19.2578 15.605 19.7136 15.3885 20.3306C15.3272 20.5052 15.1635 20.6143 14.9885 20.6143V20.6143ZM35.6333 19.1121C35.6307 19.1121 35.6262 19.1121 35.6216 19.112H33.2586C33.0245 19.112 32.8348 18.9222 32.8348 18.6882C32.8348 18.4541 33.0245 18.2643 33.2586 18.2643H35.6237C35.6292 18.2643 35.6346 18.2645 35.6401 18.2647C35.8741 18.2647 36.0605 18.4542 36.0605 18.6884C36.0605 18.9225 35.8672 19.1121 35.6333 19.1121V19.1121ZM30.8934 19.112H28.5282C28.2941 19.112 28.1044 18.9222 28.1044 18.6882C28.1044 18.4541 28.2941 18.2643 28.5282 18.2643H30.8934C31.1275 18.2643 31.3173 18.4541 31.3173 18.6882C31.3173 18.9222 31.1275 19.112 30.8934 19.112ZM26.1631 19.112H23.7979C23.5639 19.112 23.3741 18.9222 23.3741 18.6882C23.3741 18.4541 23.5639 18.2643 23.7979 18.2643H26.1631C26.3972 18.2643 26.587 18.4541 26.587 18.6882C26.587 18.9222 26.3972 19.112 26.1631 19.112ZM21.4327 19.112H19.0675C18.8335 19.112 18.6437 18.9222 18.6437 18.6882C18.6437 18.4541 18.8335 18.2643 19.0675 18.2643H21.4327C21.6668 18.2643 21.8566 18.4541 21.8566 18.6882C21.8566 18.9222 21.6668 19.112 21.4327 19.112Z" fill="#83D5EF"/>
<path d="M38.5152 16.8731H36.2564C35.6103 16.8731 35.0864 17.3969 35.0864 18.0431V20.3019C35.0864 20.948 35.6103 21.4719 36.2564 21.4719H38.5152C39.1614 21.4719 39.6852 20.948 39.6852 20.3019V18.0431C39.6852 17.3969 39.1614 16.8731 38.5152 16.8731Z" fill="#6C7ED5"/>
<path d="M16.4761 16.8731H14.2174C13.5712 16.8731 13.0474 17.3969 13.0474 18.0431V20.3019C13.0474 20.948 13.5712 21.4719 14.2174 21.4719H16.4761C17.1223 21.4719 17.6461 20.948 17.6461 20.3019V18.0431C17.6461 17.3969 17.1223 16.8731 16.4761 16.8731Z" fill="#6C7ED5"/>
<path d="M38.5152 32.6694H36.2564C35.6103 32.6694 35.0864 33.1933 35.0864 33.8394V36.0982C35.0864 36.7443 35.6103 37.2682 36.2564 37.2682H38.5152C39.1614 37.2682 39.6852 36.7443 39.6852 36.0982V33.8394C39.6852 33.1933 39.1614 32.6694 38.5152 32.6694Z" fill="#6C7ED5"/>
<path d="M16.4761 32.6694H14.2174C13.5712 32.6694 13.0474 33.1933 13.0474 33.8394V36.0982C13.0474 36.7443 13.5712 37.2682 14.2174 37.2682H16.4761C17.1223 37.2682 17.6461 36.7443 17.6461 36.0982V33.8394C17.6461 33.1933 17.1223 32.6694 16.4761 32.6694Z" fill="#6C7ED5"/>
</svg>
