<svg width="69" height="69" viewBox="0 0 69 69" fill="none" xmlns="http://www.w3.org/2000/svg">
<path d="M20.6978 21.2946H16.8874L27.2756 50.6596L33.0913 34.0406L28.5823 21.2946H24.562V18.4966H42.3653V21.2946H38.1962L48.5843 50.6596L52.3184 39.9886C57.2168 26.317 48.3036 22.0582 48.3036 19.007C48.3036 15.9559 50.7771 13.4826 53.8281 13.4826C53.9931 13.4826 54.1534 13.4915 54.3105 13.5061C49.1408 8.62592 42.17 5.63318 34.4995 5.63318C24.4769 5.63318 15.6485 10.742 10.4731 18.4966H20.6975V21.2946H20.6978Z" fill="black"/>
<path d="M5.63306 34.5C5.63306 45.5518 11.8448 55.1513 20.9664 60.0021L7.9393 23.1775C6.45534 26.654 5.63306 30.4809 5.63306 34.5Z" fill="black"/>
<path d="M59.6225 20.2754C60.0354 22.7066 59.9104 25.4392 59.2768 28.1824H59.3916L58.9551 29.4296C58.6965 30.3302 58.3708 31.2515 58.0009 32.1567L48.0681 59.9834C57.1706 55.1268 63.3664 45.5376 63.3664 34.4999C63.3664 29.3278 62.0049 24.474 59.6225 20.2754Z" fill="black"/>
<path d="M25.5972 61.9654C28.4016 62.8738 31.3929 63.3666 34.5 63.3666C37.4636 63.3666 40.3226 62.9193 43.014 62.0896L34.5702 38.2207L25.5972 61.9654Z" fill="black"/>
<path d="M58.8951 10.1048C52.3789 3.58861 43.7151 0 34.4998 0C25.2846 0 16.6209 3.58861 10.1048 10.1048C3.58861 16.6209 0 25.2846 0 34.5C0 43.7153 3.58861 52.3789 10.1048 58.8951C16.6209 65.4112 25.2847 68.9998 34.5 68.9998C43.7153 68.9998 52.3789 65.4112 58.8952 58.8951C65.4114 52.3789 69 43.7151 69 34.5C68.9998 25.2846 65.4112 16.6209 58.8951 10.1048ZM34.4998 66.5661C16.8185 66.5661 2.43371 52.1813 2.43371 34.5C2.43371 16.8187 16.8185 2.43371 34.4998 2.43371C52.1812 2.43371 66.566 16.8187 66.566 34.5C66.566 52.1813 52.1813 66.5661 34.4998 66.5661Z" fill="black"/>
</svg>
